<svg xmlns="http://www.w3.org/2000/svg" viewBox="0 0 432 432"><defs><style>.cls-1{fill:#fff;}</style></defs><g id="Guides"><rect x="-0.1" y="-0.1" width="432.2" height="432.2" rx="69.31"/><path class="cls-1" d="M99.23,345.91h62.09a5,5,0,0,1,5,5v22a5,5,0,0,1-5,5H50.9a5,5,0,0,1-5-5V354.16a5,5,0,0,1,1.22-3.27L111,277.36H53.36a5,5,0,0,1-5-5v-22a5,5,0,0,1,5-5H159.11a5,5,0,0,1,5,5v18.71a5,5,0,0,1-1.21,3.26Z"/><path class="cls-1" d="M308.85,323.06h-87.5c4.17,15.73,15.48,24.57,31.2,24.57a44.2,44.2,0,0,0,27.8-10,5.85,5.85,0,0,1,7.79.31l14.23,13.92a5.82,5.82,0,0,1-.07,8.43c-13.29,12.1-31.58,19.05-53.44,19.05-44.07,0-71.3-28.09-70.23-69.68,1-37.27,32.27-65.89,69.55-65.7,44.43.23,67.32,28.45,66.51,73.31A5.86,5.86,0,0,1,308.85,323.06Zm-35.17-22.85c0-16.21-10.32-26.78-25.55-26.78-14.74,0-24.82,10.81-27.52,26.78Z"/><path class="cls-1" d="M201.65,101.43l46.71,19.7a8,8,0,0,1,4.89,7.37h0a8,8,0,0,1-11.2,7.35l-68.31-29.69a8,8,0,0,1-4.81-7.34v-9.4a8,8,0,0,1,4.81-7.34L242.05,52.4a8,8,0,0,1,11.2,7.34h0a8,8,0,0,1-4.91,7.39L201.67,86.67A8,8,0,0,0,201.65,101.43Z"/><path class="cls-1" d="M345.71,85.84,299,66.15a8,8,0,0,1-4.89-7.38h0a8,8,0,0,1,11.19-7.35L373.61,81.1a8,8,0,0,1,4.82,7.34v9.4a8,8,0,0,1-4.82,7.35L305.3,134.87a8,8,0,0,1-11.19-7.34h0a8,8,0,0,1,4.91-7.39l46.67-19.54A8,8,0,0,0,345.71,85.84Z"/></g></svg>